<svg width="840" height="297" viewBox="0 0 840 297" fill="none" xmlns="http://www.w3.org/2000/svg">
<path d="M0.609375 296.2L0.623383 0.149902H839.423L839.414 66.7749H790.073V49.5099H49.9484V246.872H790.068V229.6H839.409L839.418 296.2H0.609375ZM230.095 148.088C230.095 105.048 264.521 81.2949 315.445 81.2949C366.369 81.2949 400.795 105.048 400.795 148.088C400.795 191.128 366.368 214.881 315.445 214.881C264.522 214.881 230.095 191.13 230.095 148.088ZM281.018 148.088C281.018 165.946 293.929 176.663 315.445 176.663C336.961 176.663 349.871 165.946 349.871 148.088C349.871 130.23 336.962 119.516 315.445 119.516C293.928 119.516 281.018 130.228 281.018 148.088ZM790.071 209.867V133.387C779.85 138.746 765.871 142.194 752.601 144.515V107.189C769.634 104.868 783.201 98.8689 790.071 86.5139H839.412V209.867H790.071ZM669.184 209.867L638.91 166.306L619.724 185.056L619.844 209.867H570.502V86.5139H619.844L619.724 133.978L666.718 86.5139H723.46L673.696 136.122L725.927 209.867H669.184ZM508.825 209.867L479.225 175.329H457.025V209.867H407.674V86.5139H498.956C533.742 86.5139 561.456 99.8699 561.456 130.943C561.456 151.305 549.441 164.52 531.332 171.126L563.106 209.866L508.825 209.867ZM457.017 145.722H494.023C503.706 145.722 510.708 141.658 510.708 132.37C510.708 123.082 503.708 118.586 494.023 118.586H457.015L457.017 145.722ZM141.231 209.867V167.927L86.9564 86.5139H141.231L167.699 131.3L195.507 86.5149H247.315L193.041 167.928V209.868L141.231 209.867Z" fill="white"/>
</svg>
